<?xml version="1.0" encoding="UTF-8" standalone="no"?>
<svg
   xmlns:dc="http://purl.org/dc/elements/1.1/"
   xmlns:cc="http://creativecommons.org/ns#"
   xmlns:rdf="http://www.w3.org/1999/02/22-rdf-syntax-ns#"
   xmlns:svg="http://www.w3.org/2000/svg"
   xmlns="http://www.w3.org/2000/svg"
   xmlns:xlink="http://www.w3.org/1999/xlink"
   id="svg3813"
   height="640"
   width="640"
   viewBox="0 0 640 640"
   preserveAspectRatio="xMidYMid meet"
   version="1.1">
  <metadata
     id="metadata3817">
    <rdf:RDF>
      <cc:Work
         rdf:about="">
        <dc:format>image/svg+xml</dc:format>
        <dc:type
           rdf:resource="http://purl.org/dc/dcmitype/StillImage" />
        <dc:title></dc:title>
      </cc:Work>
    </rdf:RDF>
  </metadata>
  <defs
     id="defs3776">
    <path
       id="b38ObUKiqF"
       d="M546.67 247.35C546.67 356.41 458.12 444.96 349.06 444.96C240 444.96 151.45 356.41 151.45 247.35C151.45 138.29 240 49.74 349.06 49.74C458.12 49.74 546.67 138.29 546.67 247.35Z" />
    <path
       id="c2dWZERL7"
       d="M474.38 255.45C474.38 324.62 418.23 380.77 349.06 380.77C279.89 380.77 223.74 324.62 223.74 255.45C223.74 186.29 279.89 130.13 349.06 130.13C418.23 130.13 474.38 186.29 474.38 255.45Z" />
    <path
       id="a2NXSejuT"
       d="M216.47 122.29L487.09 122.29L487.09 269.76L216.47 269.76L216.47 122.29Z" />
    <path
       id="d4Q039JeY"
       d="M284.06 176.03C284.06 187.06 275.1 196.03 264.06 196.03C253.02 196.03 244.06 187.06 244.06 176.03C244.06 164.99 253.02 156.03 264.06 156.03C275.1 156.03 284.06 164.99 284.06 176.03Z" />
    <path
       id="b75p4OoGP"
       d="M446.07 176.03C446.07 187.06 437.11 196.03 426.07 196.03C415.03 196.03 406.07 187.06 406.07 176.03C406.07 164.99 415.03 156.03 426.07 156.03C437.11 156.03 446.07 164.99 446.07 176.03Z" />
    <path
       id="bhkIFoK6"
       d="M60.64 307.61L60.64 307.61L60.64 308.34L60.64 308.34L60.64 307.61Z" />
  </defs>
  <g
     transform="translate(-28.679245,14.339622)"
     id="g3811">
    <g
       id="g3809">
      <g
         id="g3807">
        <use
           height="100%"
           width="100%"
           y="0"
           x="0"
           style="opacity:1;fill:#6f199d;fill-opacity:1"
           id="use3805"
           xlink:href="#bhkIFoK6" />
      </g>
      <circle
         style="fill:#6f199d;fill-opacity:1;stroke:#000000;stroke-width:25;stroke-miterlimit:4;stroke-dasharray:none;stroke-opacity:1"
         r="215.09435"
         cy="233.96225"
         cx="355.47177"
         id="path4693" />
      <circle
         r="125.28302"
         cy="262.64151"
         cx="359.24527"
         id="path4716"
         style="fill:#000000;fill-opacity:1;stroke:none;stroke-width:21.28205109;stroke-miterlimit:4;stroke-dasharray:none;stroke-opacity:1" />
      <rect
         y="107.92453"
         x="205.28304"
         height="155.47171"
         width="297.35849"
         id="rect4718"
         style="fill:#6f199d;fill-opacity:1;stroke:none;stroke-width:16.87205124;stroke-miterlimit:4;stroke-dasharray:none;stroke-opacity:1" />
      <circle
         r="26.415094"
         cy="156.98114"
         cx="269.43399"
         id="path4699"
         style="fill:#000000;fill-opacity:1;stroke:none;stroke-width:25;stroke-miterlimit:4;stroke-dasharray:none;stroke-opacity:1" />
      <circle
         r="26.415094"
         cy="159.24529"
         cx="443.77359"
         id="path4699-0"
         style="fill:#000000;fill-opacity:1;stroke:none;stroke-width:25;stroke-miterlimit:4;stroke-dasharray:none;stroke-opacity:1" />
      <flowRoot
         style="fill:black;fill-opacity:1;stroke:none;font-family:Raleway;font-style:normal;font-weight:normal;font-size:40px;line-height:1.25;letter-spacing:0px;word-spacing:0px;-inkscape-font-specification:Raleway;font-stretch:normal;font-variant:normal;"
         id="flowRoot837"
         xml:space="preserve"><flowRegion
           style="-inkscape-font-specification:Raleway;font-family:Raleway;font-weight:normal;font-style:normal;font-stretch:normal;font-variant:normal;"
           id="flowRegion839"><rect
             style="-inkscape-font-specification:Raleway;font-family:Raleway;font-weight:normal;font-style:normal;font-stretch:normal;font-variant:normal;"
             y="481.50943"
             x="16.603773"
             height="147.92453"
             width="573.5849"
             id="rect841" /></flowRegion><flowPara
           id="flowPara843"></flowPara></flowRoot>      <g
         id="text847"
         style="font-style:normal;font-weight:normal;font-size:97.81249237px;line-height:1.25;font-family:sans-serif;letter-spacing:0px;word-spacing:0px;fill:#6f199d;fill-opacity:1;stroke:none;stroke-width:2.44531226"
         aria-label="MoodSage">
        <path
           id="path849"
           style="fill:#6f199d;fill-opacity:1;stroke-width:2.44531226"
           d="m 166.85866,557.88623 h -9.45648 v -61.27609 l -19.77264,41.69449 h -5.63568 l -19.62937,-41.69449 v 61.27609 h -8.8356 v -71.11465 h 12.8952 l 18.96073,39.59305 18.33984,-39.59305 h 13.134 z" />
        <path
           id="path851"
           style="fill:#6f199d;fill-opacity:1;stroke-width:2.44531226"
           d="m 230.80931,531.23615 q 0,13.03848 -6.6864,20.58456 -6.68641,7.54608 -17.91001,7.54608 -11.31912,0 -18.00552,-7.54608 -6.63864,-7.54608 -6.63864,-20.58456 0,-13.03848 6.63864,-20.58457 6.6864,-7.59384 18.00552,-7.59384 11.2236,0 17.91001,7.59384 6.6864,7.54609 6.6864,20.58457 z m -9.26544,0 q 0,-10.36392 -4.05961,-15.37872 -4.0596,-5.06257 -11.27136,-5.06257 -7.30728,0 -11.36688,5.06257 -4.01184,5.0148 -4.01184,15.37872 0,10.0296 4.0596,15.23544 4.0596,5.15808 11.31912,5.15808 7.164,0 11.2236,-5.11032 4.10737,-5.15808 4.10737,-15.2832 z" />
        <path
           id="path853"
           style="fill:#6f199d;fill-opacity:1;stroke-width:2.44531226"
           d="m 290.22275,531.23615 q 0,13.03848 -6.6864,20.58456 -6.6864,7.54608 -17.91,7.54608 -11.31912,0 -18.00552,-7.54608 -6.63865,-7.54608 -6.63865,-20.58456 0,-13.03848 6.63865,-20.58457 6.6864,-7.59384 18.00552,-7.59384 11.2236,0 17.91,7.59384 6.6864,7.54609 6.6864,20.58457 z m -9.26544,0 q 0,-10.36392 -4.0596,-15.37872 -4.0596,-5.06257 -11.27136,-5.06257 -7.30728,0 -11.36688,5.06257 -4.01184,5.0148 -4.01184,15.37872 0,10.0296 4.0596,15.23544 4.0596,5.15808 11.31912,5.15808 7.164,0 11.2236,-5.11032 4.10736,-5.15808 4.10736,-15.2832 z" />
        <path
           id="path855"
           style="fill:#6f199d;fill-opacity:1;stroke-width:2.44531226"
           d="m 347.43924,557.88623 h -8.97888 v -5.58792 q -3.86856,3.3432 -8.07144,5.20584 -4.20288,1.86264 -9.12216,1.86264 -9.552,0 -15.18768,-7.35504 -5.58792,-7.35504 -5.58792,-20.39352 0,-6.78192 1.9104,-12.08328 1.95816,-5.30137 5.2536,-9.02665 3.24768,-3.62976 7.54608,-5.54016 4.34616,-1.9104 8.97888,-1.9104 4.20288,0 7.45056,0.90744 3.24768,0.85968 6.82968,2.72232 v -23.11584 h 8.97888 z m -8.97888,-13.134 v -30.61417 q -3.62976,-1.62384 -6.49536,-2.24472 -2.8656,-0.62088 -6.25656,-0.62088 -7.54608,0 -11.74896,5.25361 -4.20288,5.2536 -4.20288,14.90112 0,9.50424 3.24768,14.47128 3.24768,4.91928 10.41168,4.91928 3.8208,0 7.73712,-1.6716 3.91632,-1.71936 7.30728,-4.39392 z" />
        <path
           id="path857"
           style="fill:#6f199d;fill-opacity:1;stroke-width:2.44531226"
           d="m 417.50316,537.58823 q 0,4.15512 -1.95816,8.21472 -1.9104,4.0596 -5.39688,6.87744 -3.8208,3.05664 -8.93112,4.776 -5.06256,1.71936 -12.22656,1.71936 -7.68936,0 -13.8504,-1.4328 -6.11328,-1.4328 -12.46537,-4.25064 v -11.84448 h 0.66864 q 5.39689,4.48944 12.46537,6.9252 7.06848,2.43576 13.27728,2.43576 8.78784,0 13.65936,-3.29544 4.91928,-3.29544 4.91928,-8.78784 0,-4.72824 -2.34024,-6.97296 -2.29248,-2.24472 -7.02072,-3.48648 -3.582,-0.9552 -7.78488,-1.57608 -4.15512,-0.62088 -8.8356,-1.57608 -9.45648,-2.00592 -14.04144,-6.82968 -4.53721,-4.87153 -4.53721,-12.65641 0,-8.93112 7.54609,-14.61456 7.54608,-5.7312 19.15176,-5.7312 7.49832,0 13.75488,1.4328 6.25656,1.4328 11.08032,3.53424 v 11.17584 h -0.66864 q -4.0596,-3.43872 -10.69824,-5.68344 -6.59088,-2.29248 -13.51608,-2.29248 -7.59384,0 -12.22656,3.15216 -4.58496,3.15216 -4.58496,8.1192 0,4.44168 2.29248,6.97296 2.29248,2.53128 8.07144,3.86857 3.05664,0.66864 8.69232,1.62384 5.63568,0.9552 9.552,1.95816 7.92816,2.10144 11.94,6.35208 4.01184,4.25064 4.01184,11.89224 z" />
        <path
           id="path859"
           style="fill:#6f199d;fill-opacity:1;stroke-width:2.44531226"
           d="m 473.43013,557.88623 h -8.93112 v -5.68344 q -1.194,0.81192 -3.24768,2.29248 -2.00592,1.4328 -3.91632,2.29248 -2.24472,1.09848 -5.15808,1.81488 -2.91336,0.76416 -6.82968,0.76416 -7.21176,0 -12.22656,-4.776 -5.0148,-4.776 -5.0148,-12.1788 0,-6.06552 2.57904,-9.7908 2.6268,-3.77304 7.45056,-5.92224 4.87152,-2.1492 11.7012,-2.91336 6.82968,-0.76416 14.66232,-1.14624 v -1.38504 q 0,-3.05664 -1.09848,-5.06256 -1.05072,-2.00593 -3.05664,-3.15217 -1.9104,-1.09848 -4.58496,-1.48056 -2.67456,-0.38208 -5.58792,-0.38208 -3.53424,0 -7.8804,0.9552 -4.34616,0.90744 -8.97888,2.67457 h -0.4776 v -9.12217 q 2.6268,-0.7164 7.59384,-1.57608 4.96704,-0.85968 9.7908,-0.85968 5.63568,0 9.7908,0.9552 4.20288,0.90744 7.25952,3.15216 3.00888,2.19696 4.58496,5.68344 1.57608,3.48649 1.57608,8.64457 z m -8.93112,-13.134 v -14.85336 q -4.10736,0.2388 -9.69528,0.7164 -5.54016,0.4776 -8.78784,1.38504 -3.86856,1.09848 -6.25656,3.43872 -2.388,2.29248 -2.388,6.35208 0,4.58496 2.77008,6.9252 2.77008,2.29248 8.45352,2.29248 4.72824,0 8.64456,-1.81488 3.91632,-1.86264 7.25952,-4.44168 z" />
        <path
           id="path861"
           style="fill:#6f199d;fill-opacity:1;stroke-width:2.44531226"
           d="m 534.08535,551.82071 q 0,13.56384 -6.16104,19.91592 -6.16105,6.35208 -18.96073,6.35208 -4.25064,0 -8.31024,-0.62088 -4.01184,-0.57312 -7.92816,-1.6716 v -9.16992 h 0.4776 q 2.19696,0.85968 6.97296,2.10144 4.776,1.28952 9.552,1.28952 4.58496,0 7.59384,-1.09848 3.00888,-1.09848 4.68048,-3.05664 1.6716,-1.86264 2.388,-4.48944 0.7164,-2.6268 0.7164,-5.87448 v -4.87152 q -4.0596,3.24768 -7.78488,4.87152 -3.67752,1.57608 -9.40872,1.57608 -9.552,0 -15.18768,-6.87744 -5.58792,-6.9252 -5.58792,-19.48608 0,-6.87744 1.9104,-11.84448 1.95816,-5.01481 5.30136,-8.64457 3.1044,-3.39096 7.54608,-5.2536 4.44168,-1.9104 8.8356,-1.9104 4.63272,0 7.73712,0.9552 3.15216,0.90744 6.63864,2.81784 l 0.57312,-2.29248 h 8.40577 z m -8.97889,-8.5968 v -29.08585 q -3.582,-1.62384 -6.6864,-2.29248 -3.05664,-0.7164 -6.11328,-0.7164 -7.4028,0 -11.65344,4.96705 -4.25064,4.96704 -4.25064,14.42352 0,8.97888 3.15216,13.6116 3.15216,4.63272 10.45944,4.63272 3.91632,0 7.83264,-1.48056 3.96408,-1.52832 7.25952,-4.0596 z" />
        <path
           id="path863"
           style="fill:#6f199d;fill-opacity:1;stroke-width:2.44531226"
           d="m 596.41216,532.14359 h -39.30649 q 0,4.91928 1.48056,8.5968 1.48056,3.62976 4.0596,5.97 2.48352,2.29248 5.87449,3.43872 3.43872,1.14624 7.54608,1.14624 5.44464,0 10.93704,-2.1492 5.54016,-2.19696 7.8804,-4.2984 h 0.4776 v 9.7908 q -4.5372,1.9104 -9.26544,3.19992 -4.72824,1.28952 -9.93408,1.28952 -13.27729,0 -20.72785,-7.164 -7.45056,-7.21176 -7.45056,-20.44128 0,-13.08624 7.11624,-20.77561 7.164,-7.68936 18.81745,-7.68936 10.79376,0 16.62048,6.30432 5.87448,6.30433 5.87448,17.91001 z m -8.74008,-6.87744 q -0.0478,-7.06848 -3.582,-10.93705 -3.48648,-3.86856 -10.65048,-3.86856 -7.21177,0 -11.51017,4.25065 -4.25064,4.25064 -4.82376,10.55496 z" />
      </g>
    </g>
  </g>
</svg>
